<svg width="256" height="47" viewBox="0 0 256 47" fill="none" xmlns="http://www.w3.org/2000/svg">
<g clip-path="url(#clip0_319_19352)">
<path d="M27.3626 27.7391C27.3551 27.7009 27.3325 27.6628 27.31 27.6322C27.2273 27.533 27.107 27.4796 26.9791 27.4796C26.9791 27.4796 26.8062 27.4796 26.6332 27.678C26.6332 27.678 24.5879 30.967 16.8579 31.2647L16.7 25.549C22.2569 24.8469 23.7157 22.0997 24.0917 20.9703C24.1593 20.8024 24.2045 20.6269 24.2195 20.4437C24.2195 20.4209 24.2195 20.398 24.2195 20.3751C24.2195 20.2759 24.2195 20.169 24.1067 20.1232C24.024 20.0546 23.9187 20.024 23.8134 20.024C23.7232 20.024 23.6405 20.0698 23.5803 20.1309L23.2119 20.5429C22.5427 21.245 20.55 22.9162 16.6549 23.2291L16.4895 17.6965C21.3621 16.8419 21.5877 13.9344 21.5877 13.9344C21.6102 13.7207 21.4599 13.53 21.2493 13.4994C21.2343 13.4994 21.2192 13.4994 21.2117 13.4994C21.0764 13.5071 20.9485 13.5681 20.8508 13.6597C19.5649 14.6594 18.0235 15.2699 16.4143 15.4377L16.2789 10.7828C17.4219 10.6149 18.4145 9.89755 18.9559 8.85972C19.0536 8.64605 19.1288 8.43238 19.189 8.20344V8.00503C19.189 7.86767 19.1138 7.82952 19.1138 7.82952C19.0536 7.76084 18.9709 7.70742 18.8807 7.68453C18.7378 7.66927 18.6025 7.70742 18.4897 7.79899C17.7828 8.23397 16.9858 8.49343 16.1586 8.56211L15.9481 0C14.7149 0.160253 13.4967 0.434973 12.3087 0.82416C11.7748 1.01494 11.2635 1.21335 10.8048 1.41939C9.346 2.06803 7.96994 2.90745 6.72923 3.92239L6.49613 4.10554C5.51108 4.87628 4.6313 5.78438 3.88688 6.79169C3.5109 7.28008 3.16501 7.79136 2.84919 8.31791C2.63865 8.6842 2.4281 9.08102 2.24011 9.44731C1.53329 10.9049 1.00692 12.4387 0.661029 14.026C0.480562 14.7891 0.330172 15.6514 0.202342 16.5214C-0.481929 21.2832 0.563276 25.4574 3.21012 28.5861C5.84945 31.5546 9.51143 33.3708 13.4366 33.6685L13.3163 37.3085L12.632 46.855H17.7302L17.0309 37.3085L16.9256 33.6074C24.5503 33.0122 26.6332 29.6926 27.1822 28.4488C27.2273 28.3572 27.2649 28.258 27.3025 28.1588C27.3175 28.1206 27.3325 28.0749 27.3401 28.0367C27.3401 27.9985 27.3401 27.9528 27.3401 27.9146C27.3401 27.8841 27.3401 27.8612 27.3401 27.8307C27.3476 27.8001 27.3551 27.7696 27.3626 27.7391ZM13.5043 31.0662C10.301 30.7992 7.31575 29.3111 5.15015 26.8997C3.28532 24.618 2.36795 21.6952 2.57097 18.742C5.08247 22.6186 9.1505 25.1598 13.6922 25.6939L13.5043 31.0662ZM13.7449 23.0612C8.90988 22.3668 4.85689 19.0091 3.21764 14.3389L3.30788 13.9726C3.50338 13.1713 3.75153 12.3853 4.05982 11.6222L4.18765 11.7977C6.3307 15.2241 9.89492 17.4676 13.8727 17.9026L13.7449 23.0612ZM13.9705 15.2927C10.4138 14.812 7.33079 12.5455 5.7893 9.25654L5.58627 8.78341L5.72162 8.60026C6.26303 7.86004 6.87962 7.18851 7.55637 6.57802C8.96251 8.97419 11.3763 10.5843 14.0983 10.9583L13.9705 15.2927ZM14.1885 8.32554C12.2786 7.97451 10.6243 6.77643 9.67686 5.05179C11.1206 4.10554 12.6922 3.38058 14.3389 2.89219L14.1885 8.32554Z" fill="#1D8649"/>
<path d="M39.5073 17.8797C38.7253 17.8415 37.9808 18.2078 37.5221 18.8565C37.0108 19.673 36.7702 20.6269 36.8228 21.5884C36.8228 24.0151 37.7177 25.2284 39.5073 25.2284C40.4547 25.1979 41.3871 24.9995 42.2669 24.6561V26.5944C41.3345 26.976 40.3344 27.1667 39.3268 27.1515C37.9884 27.2431 36.68 26.7089 35.7701 25.7092C34.8753 24.5264 34.4392 23.0612 34.5369 21.5731C34.5144 20.5506 34.7174 19.528 35.1385 18.597C35.4994 17.7805 36.0934 17.0937 36.8454 16.6282C37.6575 16.1551 38.5749 15.9261 39.5073 15.949C40.5901 15.9566 41.6578 16.2237 42.6279 16.7121L41.8759 18.5894C41.4849 18.3986 41.0788 18.2307 40.6728 18.0857C40.2968 17.9484 39.9058 17.8797 39.5073 17.8797Z" fill="#231F20"/>
<path d="M49.3578 27.0065L48.9292 25.8695H48.8691C48.5683 26.2892 48.1698 26.6402 47.7111 26.8768C47.2223 27.0752 46.6884 27.1744 46.1621 27.1515C45.4778 27.1896 44.8086 26.9454 44.3123 26.4723C43.831 25.9381 43.5904 25.2361 43.6355 24.5188C43.5754 23.7556 43.9137 23.0078 44.5228 22.5576C45.3575 22.0768 46.3049 21.8402 47.2599 21.8631L48.6736 21.8173V21.4511C48.7563 20.8329 48.3277 20.2682 47.7186 20.1843C47.6133 20.169 47.5156 20.169 47.4103 20.1843C46.6132 20.2224 45.8312 20.4285 45.1093 20.7871L44.3574 19.2609C45.3199 18.7496 46.3952 18.4902 47.478 18.4978C48.3728 18.4368 49.2676 18.6962 49.997 19.2228C50.6136 19.7798 50.9369 20.604 50.8768 21.4434V27.0065H49.3578ZM48.6961 23.1452H47.8389C47.3351 23.1299 46.8313 23.252 46.3952 23.5038C46.0718 23.7328 45.8914 24.1067 45.9214 24.5035C45.9214 25.1445 46.2749 25.465 46.9967 25.465C47.4554 25.4879 47.8991 25.32 48.2374 25.0071C48.5533 24.6866 48.7187 24.2517 48.6961 23.8014V23.1452Z" fill="#231F20"/>
<path d="M60.5617 27.0065H58.3059V22.1378C58.3435 21.6647 58.2307 21.1916 57.99 20.7871C57.7569 20.4743 57.3734 20.3064 56.99 20.3369C56.4636 20.2911 55.9447 20.5277 55.6364 20.9703C55.3131 21.6266 55.1627 22.3515 55.2229 23.0841V27.0065H52.967V18.6733H54.6664L54.9672 19.7417H55.0875C55.3357 19.3372 55.6891 19.0244 56.1177 18.8259C56.5914 18.6123 57.1027 18.5054 57.6216 18.5207C58.4186 18.4597 59.2007 18.7344 59.7872 19.2838C60.3286 19.9172 60.5993 20.7414 60.5391 21.5731L60.5617 27.0065Z" fill="#231F20"/>
<path d="M67.8856 27.0065L67.457 25.8695H67.3969C67.0961 26.2892 66.6976 26.6402 66.2389 26.8768C65.7501 27.0752 65.2162 27.1744 64.6899 27.1515C64.0056 27.1896 63.3364 26.9454 62.8401 26.4723C62.3588 25.9381 62.1182 25.2361 62.1633 24.5188C62.1107 23.748 62.4491 23.0078 63.0732 22.5576C63.9078 22.0768 64.8553 21.8402 65.8103 21.8631L67.2314 21.8173V21.4511C67.3066 20.8253 66.8705 20.2606 66.2614 20.1843C66.1637 20.169 66.0584 20.169 65.9607 20.1843C65.1636 20.2224 64.3816 20.4285 63.6597 20.7871L62.9078 19.2609C63.8702 18.7496 64.9455 18.4902 66.0283 18.4978C66.9231 18.4368 67.818 18.6962 68.5473 19.2228C69.1639 19.7798 69.4873 20.604 69.4271 21.4434V27.0065H67.8856ZM67.2314 23.1452H66.3667C65.8629 23.1299 65.3591 23.252 64.923 23.5038C64.5996 23.7328 64.4192 24.1067 64.4492 24.5035C64.4492 25.1445 64.8027 25.465 65.5245 25.465C65.9832 25.4879 66.4269 25.32 66.7652 25.0071C67.0811 24.6866 67.2465 24.2517 67.2314 23.8014V23.1452Z" fill="#231F20"/>
<path d="M74.1644 27.1515C73.2696 27.182 72.4199 26.7547 71.9085 26.0145C71.3145 25.0758 71.0288 23.9693 71.0889 22.8552C71.0288 21.7334 71.322 20.6193 71.9236 19.6806C72.4575 18.9328 73.3222 18.5055 74.2245 18.5436C75.1645 18.4978 76.0668 18.9633 76.5781 19.7646H76.6533C76.5481 19.2151 76.4879 18.6581 76.4804 18.101V15.4072H78.7362V27.0065H77.0067L76.5781 25.9229H76.4804C75.9916 26.7394 75.1043 27.2049 74.1644 27.1515ZM74.9163 25.3429C75.3901 25.3887 75.8563 25.1979 76.1721 24.8393C76.4804 24.3204 76.6383 23.7175 76.6082 23.1146V22.8704C76.6608 22.2065 76.518 21.535 76.2022 20.9474C75.8863 20.5353 75.3901 20.3217 74.8787 20.3674C74.4125 20.3522 73.9689 20.5964 73.7283 21.0085C73.42 21.5808 73.2771 22.2294 73.3147 22.8857C73.2696 23.5267 73.4124 24.1677 73.7283 24.7324C73.999 25.1369 74.4652 25.3735 74.9464 25.3429H74.9163Z" fill="#231F20"/>
<path d="M80.8042 16.5214C80.8042 15.7583 81.2027 15.4072 82.0148 15.4072C82.8269 15.4072 83.2255 15.7812 83.2255 16.5214C83.2405 16.8266 83.1352 17.1242 82.9247 17.3455C82.669 17.5516 82.3457 17.6584 82.0148 17.6355C81.2027 17.6355 80.8042 17.2692 80.8042 16.5214ZM83.1202 27.0065H80.8644V18.6733H83.1202V27.0065Z" fill="#231F20"/>
<path d="M90.4891 27.0065L90.0605 25.8695H90.0004C89.7071 26.2892 89.3312 26.6326 88.8875 26.8768C88.3912 27.0752 87.8649 27.1744 87.331 27.1515C86.6467 27.1896 85.985 26.9454 85.4812 26.4723C84.9999 25.9381 84.7593 25.2361 84.8044 24.5188C84.7518 23.748 85.0977 23.0078 85.7143 22.5576C86.549 22.0768 87.4964 21.8326 88.4589 21.8631L89.8726 21.8173V21.4511C89.9553 20.8329 89.5267 20.2606 88.9176 20.1843C88.8123 20.169 88.707 20.169 88.6018 20.1843C87.8047 20.2224 87.0227 20.4285 86.3008 20.7871L85.5489 19.2609C86.5114 18.7496 87.5866 18.4902 88.677 18.4978C89.5718 18.4368 90.4591 18.6962 91.196 19.2228C91.8051 19.7875 92.1284 20.604 92.0682 21.4434V27.0065H90.4891ZM89.835 23.1452H88.9777C88.4739 23.1299 87.9701 23.252 87.5265 23.5038C87.2031 23.7328 87.0227 24.1067 87.0528 24.5035C87.0528 25.1445 87.4137 25.465 88.1356 25.465C88.5942 25.4879 89.0379 25.32 89.3687 25.0071C89.6846 24.6866 89.85 24.2517 89.835 23.8014V23.1452Z" fill="#231F20"/>
<path d="M101.723 27.0065H99.4675V22.1378C99.5051 21.6647 99.3923 21.1916 99.1517 20.7871C98.9186 20.4743 98.5426 20.3064 98.1516 20.3369C97.6252 20.2911 97.1139 20.5353 96.8056 20.9703C96.4747 21.6189 96.3319 22.3515 96.3845 23.0841V27.0065H94.1287V18.6733H95.8281L96.1288 19.7417H96.2567C96.4973 19.3372 96.8582 19.0243 97.2793 18.8259C97.753 18.6123 98.2644 18.5054 98.7832 18.5207C99.5727 18.452 100.362 18.7344 100.941 19.2838C101.483 19.9172 101.753 20.7413 101.693 21.5731L101.723 27.0065Z" fill="#231F20"/>
<path d="M107.927 27.0065V16.1093H110.183V27.0065H107.927Z" fill="#231F20"/>
<path d="M120.086 27.0065H117.83V22.1378C117.868 21.6647 117.755 21.1916 117.514 20.7871C117.281 20.4743 116.898 20.3064 116.514 20.3369C115.988 20.2911 115.476 20.5353 115.168 20.9703C114.837 21.6189 114.694 22.3515 114.747 23.0841V27.0065H112.491V18.6733H114.191L114.491 19.7417H114.619C114.86 19.3372 115.221 19.0243 115.642 18.8259C116.116 18.6123 116.627 18.5054 117.146 18.5207C117.935 18.452 118.725 18.7344 119.304 19.2838C119.845 19.9172 120.116 20.7413 120.056 21.5731L120.086 27.0065Z" fill="#231F20"/>
<path d="M128.071 24.534C128.124 25.2818 127.816 26.0144 127.237 26.4876C126.462 26.9836 125.545 27.2202 124.627 27.1515C124.124 27.1515 123.62 27.1209 123.124 27.0294C122.718 26.9531 122.326 26.8386 121.951 26.6707V24.7935C122.402 25.0071 122.868 25.175 123.349 25.2895C123.793 25.4192 124.251 25.4879 124.718 25.4955C125.522 25.4955 125.928 25.2513 125.928 24.7782C125.936 24.6179 125.883 24.4577 125.77 24.3432C125.605 24.1906 125.417 24.0609 125.214 23.9617C124.951 23.8167 124.597 23.6564 124.161 23.4656C123.657 23.2825 123.169 23.0383 122.725 22.7331C122.454 22.5346 122.236 22.2752 122.086 21.9699C121.943 21.6265 121.868 21.2526 121.883 20.8787C121.838 20.1843 122.161 19.5204 122.725 19.1235C123.439 18.6809 124.274 18.4673 125.116 18.5207C126.109 18.5207 127.094 18.742 127.989 19.177L127.312 20.81C126.906 20.6345 126.56 20.4895 126.169 20.375C125.816 20.2606 125.447 20.1995 125.079 20.1995C124.424 20.1995 124.094 20.3827 124.094 20.749C124.101 20.9703 124.221 21.1687 124.409 21.2755C124.853 21.535 125.319 21.7563 125.8 21.9394C126.297 22.1378 126.77 22.3897 127.207 22.7025C127.477 22.9009 127.703 23.1604 127.861 23.4656C128.011 23.8014 128.079 24.1677 128.071 24.534Z" fill="#231F20"/>
<path d="M133.252 25.3429C133.726 25.3276 134.2 25.2437 134.651 25.0834V26.7775C134.004 27.0446 133.305 27.1744 132.606 27.1515C131.891 27.2125 131.177 26.9683 130.658 26.4647C130.214 25.8771 129.996 25.1369 130.049 24.3966V20.3827H128.989V19.4212L130.214 18.658L130.854 16.9029H132.282V18.6733H134.538V20.3827H132.282V24.3966C132.26 24.6637 132.357 24.9308 132.545 25.114C132.749 25.2742 132.997 25.3582 133.252 25.3429Z" fill="#231F20"/>
<path d="M136.208 16.5214C136.208 15.7583 136.614 15.4072 137.418 15.4072C138.223 15.4072 138.629 15.7812 138.629 16.5214C138.644 16.8266 138.539 17.1242 138.328 17.3455C138.072 17.5592 137.749 17.6584 137.418 17.6355C136.614 17.6355 136.208 17.2692 136.208 16.5214ZM138.516 27.0065H136.26V18.6733H138.516V27.0065Z" fill="#231F20"/>
<path d="M144.306 25.3429C144.78 25.3276 145.253 25.2437 145.704 25.0834V26.7775C145.058 27.0446 144.359 27.1744 143.659 27.1515C142.945 27.2125 142.23 26.9683 141.712 26.4647C141.268 25.8771 141.05 25.1369 141.103 24.3966V20.3827H140.02V19.4212L141.245 18.658L141.885 16.9029H143.306V18.6733H145.562V20.3827H143.306V24.3966C143.283 24.6637 143.381 24.9308 143.576 25.114C143.78 25.2819 144.043 25.3582 144.306 25.3429Z" fill="#231F20"/>
<path d="M153.134 27.0065L152.841 25.9382H152.72C152.472 26.3273 152.119 26.6402 151.705 26.8386C151.231 27.0599 150.72 27.1668 150.201 27.1515C149.404 27.2202 148.622 26.9455 148.036 26.3884C147.494 25.755 147.223 24.9309 147.284 24.0991V18.6733H149.539V23.542C149.502 24.0151 149.615 24.4882 149.855 24.8927C150.088 25.2056 150.464 25.3735 150.855 25.3429C151.382 25.3887 151.893 25.1445 152.201 24.7095C152.532 24.0609 152.675 23.3283 152.622 22.5957V18.6733H154.878V27.0065H153.134Z" fill="#231F20"/>
<path d="M160.623 25.3429C161.097 25.3276 161.571 25.2437 162.022 25.0834V26.7775C161.375 27.0446 160.676 27.1744 159.976 27.1515C159.262 27.2125 158.548 26.9683 158.029 26.4647C157.585 25.8771 157.367 25.1369 157.42 24.3966V20.3827H156.36V19.4212L157.585 18.658L158.224 16.9029H159.646V18.6733H161.901V20.3827H159.646V24.3966C159.623 24.6637 159.721 24.9308 159.916 25.114C160.119 25.2742 160.367 25.3582 160.623 25.3429Z" fill="#231F20"/>
<path d="M167.368 27.1515C165.27 27.3728 163.398 25.816 163.18 23.687C163.15 23.4275 163.15 23.1604 163.18 22.9009C163.112 21.7334 163.473 20.5887 164.202 19.6806C164.939 18.9022 165.977 18.4902 167.037 18.5436C168.03 18.4825 169.007 18.8412 169.729 19.5433C170.406 20.2987 170.759 21.306 170.699 22.3286V23.4275H165.436C165.421 23.9922 165.624 24.534 165.992 24.9537C166.391 25.3429 166.94 25.5413 167.496 25.5032C167.97 25.5032 168.436 25.4497 168.895 25.3429C169.368 25.2284 169.827 25.0606 170.263 24.8469V26.5486C169.872 26.7547 169.451 26.8996 169.015 26.9912C168.473 27.1057 167.925 27.1591 167.368 27.1515ZM167.052 20.1309C166.631 20.108 166.225 20.2835 165.939 20.5964C165.646 20.9626 165.488 21.4205 165.481 21.8936H168.594C168.616 21.4205 168.458 20.9626 168.165 20.5964C167.887 20.2987 167.496 20.1309 167.09 20.1309H167.052Z" fill="#231F20"/>
<path d="M183.806 22.8246C183.873 23.9846 183.497 25.1292 182.753 26.0068C181.986 26.8005 180.918 27.2125 179.828 27.1515C179.106 27.1667 178.392 26.9836 177.752 26.6326C177.151 26.2739 176.677 25.7397 176.376 25.1063C176.046 24.389 175.88 23.6106 175.895 22.817C175.835 21.6723 176.211 20.5506 176.94 19.6806C177.715 18.8946 178.783 18.4825 179.873 18.5512C180.595 18.536 181.317 18.7115 181.948 19.0701C182.55 19.4288 183.024 19.963 183.324 20.5964C183.648 21.2908 183.813 22.0539 183.806 22.8246ZM178.166 22.8246C178.121 23.4733 178.264 24.1219 178.565 24.6943C178.85 25.1292 179.347 25.3734 179.858 25.3276C180.362 25.3734 180.858 25.1369 181.136 24.7019C181.437 24.1219 181.572 23.4733 181.527 22.8246C181.572 22.1836 181.437 21.5426 181.136 20.9703C180.542 20.2453 179.489 20.1461 178.775 20.749C178.692 20.8177 178.625 20.8863 178.557 20.9703C178.256 21.5426 178.121 22.1836 178.166 22.8246Z" fill="#231F20"/>
<path d="M190.16 20.3827H188.235V27.0065H185.979V20.3827H184.753V19.2838L185.979 18.6733V18.0628C185.911 17.2997 186.167 16.5519 186.671 15.9872C187.302 15.4835 188.099 15.247 188.896 15.3309C189.596 15.3156 190.295 15.4377 190.949 15.6819L190.4 17.3455C190.002 17.2082 189.581 17.1395 189.16 17.1319C188.896 17.1013 188.641 17.2082 188.475 17.4218C188.317 17.6431 188.242 17.9102 188.265 18.1849V18.7039H190.19L190.16 20.3827Z" fill="#231F20"/>
<path d="M197.724 27.0065H195.468V16.1093H201.582V18.0018H197.694V20.81H201.311V22.7331H197.694L197.724 27.0065Z" fill="#231F20"/>
<path d="M210.793 22.8246C210.861 23.9846 210.485 25.1292 209.74 26.0068C208.973 26.8005 207.905 27.2125 206.815 27.1515C206.093 27.1667 205.379 26.9836 204.74 26.6326C204.138 26.2739 203.665 25.7397 203.364 25.1063C203.033 24.389 202.867 23.6106 202.882 22.817C202.822 21.6723 203.198 20.5506 203.935 19.6806C204.71 18.8946 205.777 18.4825 206.868 18.5512C207.59 18.536 208.312 18.7115 208.943 19.0701C209.545 19.4288 210.018 19.963 210.319 20.5964C210.643 21.2908 210.808 22.0539 210.793 22.8246ZM205.153 22.8246C205.108 23.4733 205.251 24.1219 205.552 24.6943C205.838 25.1292 206.334 25.3734 206.845 25.3276C207.349 25.3734 207.845 25.1369 208.124 24.7019C208.424 24.1219 208.56 23.4733 208.515 22.8246C208.56 22.1836 208.424 21.5426 208.124 20.9703C207.529 20.2453 206.477 20.1461 205.762 20.749C205.68 20.8177 205.612 20.8863 205.544 20.9703C205.244 21.5426 205.108 22.1836 205.153 22.8246Z" fill="#231F20"/>
<path d="M217.042 18.5207C217.297 18.5207 217.546 18.536 217.794 18.5818L217.628 20.7185C217.41 20.665 217.192 20.6345 216.967 20.6422C216.365 20.604 215.771 20.8024 215.305 21.1992C214.891 21.6113 214.673 22.176 214.711 22.7636V27.0065H212.455V18.6733H214.139L214.47 20.0775H214.583C214.831 19.6043 215.192 19.2075 215.636 18.9175C216.057 18.6428 216.545 18.5054 217.042 18.5207Z" fill="#231F20"/>
<path d="M222.817 27.1515C221.681 27.2202 220.568 26.8233 219.726 26.045C218.944 25.1979 218.538 24.0609 218.613 22.901C218.553 21.7334 218.922 20.5811 219.659 19.6806C220.395 18.9023 221.433 18.4825 222.493 18.5436C223.486 18.4825 224.463 18.8488 225.185 19.5433C225.862 20.3064 226.208 21.3061 226.148 22.3286V23.4275H220.884C220.869 23.9922 221.072 24.5416 221.448 24.9537C221.847 25.3429 222.396 25.5413 222.952 25.5032C223.418 25.5032 223.884 25.4497 224.343 25.3429C224.817 25.2284 225.283 25.0682 225.719 24.8469V26.5486C225.321 26.7547 224.907 26.8997 224.471 26.9912C223.93 27.1057 223.373 27.1591 222.817 27.1515ZM222.508 20.1309C222.087 20.108 221.681 20.2835 221.396 20.5964C221.102 20.9627 220.937 21.4205 220.937 21.8937H224.057C224.08 21.4205 223.93 20.955 223.629 20.5964C223.343 20.2835 222.93 20.1156 222.508 20.1309Z" fill="#231F20"/>
<path d="M233.652 24.534C233.697 25.2895 233.374 26.0221 232.78 26.4876C232.005 26.9836 231.088 27.2202 230.171 27.1515C229.667 27.1515 229.163 27.121 228.667 27.0294C228.261 26.9607 227.87 26.8386 227.494 26.6707V24.7935C227.945 25.0072 228.411 25.175 228.892 25.2895C229.336 25.4192 229.795 25.4879 230.261 25.4955C231.065 25.4955 231.471 25.2514 231.471 24.7782C231.479 24.618 231.426 24.4577 231.313 24.3432C231.148 24.1906 230.96 24.0609 230.757 23.9617C230.494 23.8167 230.14 23.6565 229.704 23.4657C229.216 23.2673 228.749 23.0154 228.321 22.7026C228.05 22.5042 227.832 22.2447 227.682 21.9395C227.539 21.5961 227.463 21.2221 227.479 20.8482C227.448 20.169 227.764 19.5204 228.321 19.1312C229.035 18.6886 229.87 18.4749 230.712 18.5283C231.704 18.5283 232.69 18.7496 233.584 19.1846L232.908 20.8177C232.502 20.6422 232.118 20.4972 231.765 20.3827C231.411 20.2682 231.043 20.2072 230.674 20.2072C230.02 20.2072 229.689 20.3903 229.689 20.7566C229.697 20.9779 229.817 21.1763 230.005 21.2832C230.449 21.5426 230.915 21.7639 231.396 21.9471C231.892 22.1455 232.366 22.3973 232.802 22.7102C233.073 22.9086 233.299 23.1681 233.457 23.4733C233.599 23.8091 233.667 24.1677 233.652 24.534Z" fill="#231F20"/>
<path d="M238.833 25.3429C239.307 25.3276 239.781 25.2437 240.232 25.0834V26.7775C239.585 27.0446 238.886 27.1744 238.186 27.1515C237.472 27.2125 236.758 26.9683 236.239 26.4647C235.795 25.8771 235.577 25.1369 235.63 24.3966V20.3827H234.57V19.4212L235.795 18.658L236.434 16.9029H237.856V18.6733H240.111V20.3827H237.856V24.3966C237.833 24.6637 237.931 24.9308 238.126 25.114C238.329 25.2742 238.577 25.3582 238.833 25.3429Z" fill="#231F20"/>
<path d="M246.435 18.5207C246.691 18.5207 246.939 18.536 247.187 18.5818L247.022 20.7185C246.804 20.665 246.586 20.6345 246.36 20.6422C245.759 20.604 245.164 20.8024 244.706 21.1992C244.292 21.6113 244.074 22.176 244.104 22.7636V27.0065H241.848V18.6733H243.54L243.864 20.0775H243.976C244.225 19.6043 244.585 19.2075 245.029 18.9175C245.45 18.6428 245.939 18.5054 246.435 18.5207Z" fill="#231F20"/>
<path d="M247.503 18.6733H249.939L251.481 23.3588C251.631 23.832 251.721 24.3127 251.751 24.8088H251.797C251.849 24.3127 251.954 23.8243 252.112 23.3588L253.616 18.6733H256L252.556 28.0749C252.308 28.8456 251.834 29.5248 251.203 30.0208C250.608 30.4558 249.887 30.6847 249.15 30.6694C248.766 30.6694 248.39 30.6313 248.014 30.5473V28.7388C248.3 28.8075 248.601 28.8456 248.894 28.838C249.27 28.838 249.631 28.7159 249.924 28.4717C250.255 28.1741 250.496 27.7849 250.616 27.3575L250.744 26.9455L247.503 18.6733Z" fill="#231F20"/>
<path d="M34.9729 46.8474V35.9502H37.2287V46.8474H34.9729Z" fill="#231F20"/>
<path d="M47.132 46.8474H44.8762V41.9787C44.9138 41.5056 44.801 41.0325 44.5603 40.628C44.3272 40.3151 43.9438 40.1473 43.5603 40.1778C43.0339 40.132 42.5151 40.3686 42.2068 40.8112C41.8834 41.4674 41.733 42.1924 41.7932 42.925V46.8474H39.5374V38.5142H41.2368L41.5375 39.5826H41.6578C41.906 39.1781 42.2594 38.8652 42.688 38.6668C43.1617 38.4532 43.6731 38.3463 44.1919 38.3616C44.989 38.3005 45.771 38.5753 46.3575 39.1247C46.8989 39.7581 47.1696 40.5822 47.1094 41.414L47.132 46.8474Z" fill="#231F20"/>
<path d="M55.1176 44.3749C55.1627 45.1304 54.8394 45.863 54.2453 46.3285C53.4633 46.8245 52.5535 47.0611 51.6361 46.9924C51.1323 47 50.6285 46.9619 50.1322 46.8703C49.7261 46.8016 49.3351 46.6795 48.9592 46.5116V44.6344C49.4028 44.848 49.869 45.0159 50.3503 45.1304C50.7939 45.2601 51.2526 45.3288 51.7188 45.3364C52.5309 45.3364 52.937 45.0922 52.937 44.6191C52.937 44.4589 52.8843 44.2986 52.7715 44.1841C52.6061 44.0315 52.4256 43.9018 52.2226 43.8026C51.9594 43.6576 51.606 43.4973 51.1699 43.3066C50.6811 43.1234 50.2149 42.8716 49.7863 42.574C49.5156 42.3756 49.29 42.1161 49.1396 41.8109C48.9968 41.4675 48.9291 41.0935 48.9441 40.7196C48.899 40.0252 49.2223 39.3613 49.7863 38.9645C50.5006 38.5142 51.3353 38.3082 52.1775 38.3616C53.1701 38.3616 54.1476 38.5829 55.0424 39.0179L54.3732 40.6509C53.9671 40.4754 53.5836 40.3304 53.2227 40.216C52.8693 40.1015 52.5083 40.0404 52.1399 40.0404C51.4782 40.0404 51.1548 40.2236 51.1548 40.5899C51.1624 40.8112 51.2827 41.0096 51.4707 41.1164C51.9143 41.3759 52.3805 41.5972 52.8618 41.7803C53.358 41.9787 53.8242 42.2306 54.2604 42.5434C54.5386 42.7419 54.7642 43.0013 54.9221 43.3066C55.065 43.6423 55.1326 44.0086 55.1176 44.3749Z" fill="#231F20"/>
<path d="M60.3137 45.1838C60.7949 45.1685 61.2687 45.0846 61.7198 44.9243V46.6184C61.0731 46.8855 60.3738 47.0152 59.6745 46.9924C58.9602 47.061 58.2458 46.8092 57.727 46.3056C57.2833 45.718 57.0653 44.9777 57.1179 44.2375V40.2236H56.0276V39.262L57.2533 38.4989L57.8999 36.7438H59.3211V38.5142H61.5769V40.2236H59.3211V44.2375C59.2986 44.5046 59.3963 44.7717 59.5918 44.9548C59.7948 45.1227 60.0505 45.2067 60.3137 45.1838Z" fill="#231F20"/>
<path d="M63.2461 36.3622C63.2461 35.5991 63.6521 35.2481 64.4642 35.2481C65.2763 35.2481 65.6749 35.622 65.6749 36.3622C65.6899 36.6675 65.5846 36.9651 65.3741 37.1864C65.1184 37.3924 64.7951 37.4993 64.4642 37.4764C63.6521 37.4764 63.2461 37.1101 63.2461 36.3622ZM65.5771 46.8474H63.3213V38.5142H65.5771V46.8474Z" fill="#231F20"/>
<path d="M71.3446 45.1838C71.8258 45.1685 72.2996 45.0846 72.7507 44.9243V46.6184C72.1041 46.8855 71.4047 47.0152 70.7054 46.9924C69.9911 47.061 69.2767 46.8092 68.7579 46.3056C68.3142 45.718 68.0962 44.9777 68.1488 44.2375V40.2236H67.0811V39.262L68.3067 38.4989L68.9534 36.7438H70.3746V38.5142H72.6304V40.2236H70.3746V44.2375C70.352 44.5046 70.4498 44.7717 70.6453 44.9548C70.8408 45.1151 71.0889 45.199 71.3446 45.1838Z" fill="#231F20"/>
<path d="M80.18 46.8474L79.8793 45.779H79.7665C79.5183 46.1682 79.1649 46.4811 78.7513 46.6795C78.2776 46.9008 77.7663 47.0076 77.2475 46.9924C76.4504 47.0611 75.6608 46.7863 75.0743 46.2293C74.5404 45.5959 74.2697 44.7717 74.3224 43.9399V38.5142H76.5782V43.3829C76.5406 43.856 76.6534 44.3291 76.894 44.7336C77.1271 45.0464 77.5106 45.2143 77.8941 45.1838C78.4205 45.2296 78.9393 44.993 79.2476 44.5504C79.571 43.8942 79.7214 43.1692 79.6612 42.4366V38.5142H81.917V46.8474H80.18Z" fill="#231F20"/>
<path d="M87.662 45.1838C88.1432 45.1685 88.6169 45.0846 89.0681 44.9243V46.6184C88.4214 46.8855 87.7221 47.0152 87.0228 46.9924C86.3085 47.061 85.5941 46.8092 85.0753 46.3056C84.6316 45.718 84.4136 44.9777 84.4662 44.2375V40.2236H83.3984V39.262L84.6241 38.4989L85.2708 36.7438H86.692V38.5142H88.9478V40.2236H86.692V44.2375C86.6694 44.5046 86.7672 44.7641 86.9551 44.9548C87.1582 45.1151 87.4063 45.199 87.662 45.1838Z" fill="#231F20"/>
<path d="M99.1141 40.2236H97.159V46.8474H94.9032V40.2236H93.6775V39.1247L94.9032 38.5142V37.9037C94.8355 37.1482 95.0836 36.3928 95.5874 35.828C96.2115 35.332 97.0011 35.0955 97.7906 35.1718C98.4899 35.1565 99.1817 35.2786 99.8359 35.5228L99.272 37.1864C98.8734 37.049 98.4523 36.9803 98.0313 36.9727C97.7681 36.9498 97.5049 37.0567 97.3395 37.2627C97.1891 37.484 97.1139 37.7511 97.1289 38.0258V38.5447H99.0614L99.1141 40.2236Z" fill="#231F20"/>
<path d="M107.806 42.6655C107.874 43.8255 107.498 44.9625 106.754 45.8477C105.987 46.6413 104.919 47.0534 103.829 46.9924C103.107 47.0076 102.392 46.8245 101.753 46.4734C101.152 46.1224 100.67 45.5882 100.377 44.9472C100.039 44.2299 99.8734 43.4515 99.8884 42.6579C99.8283 41.5209 100.197 40.3991 100.919 39.5215C101.693 38.7355 102.768 38.3234 103.859 38.3921C104.581 38.3768 105.295 38.5524 105.927 38.911C106.528 39.2697 107.009 39.7962 107.31 40.4372C107.641 41.1317 107.814 41.8948 107.806 42.6655ZM102.159 42.6655C102.122 43.3142 102.257 43.9628 102.558 44.5351C102.844 44.9701 103.347 45.2143 103.859 45.1685C104.363 45.2143 104.859 44.9701 105.137 44.5428C105.438 43.9628 105.573 43.3142 105.528 42.6655C105.573 42.0245 105.438 41.3835 105.137 40.8112C104.543 40.0862 103.49 39.987 102.776 40.5899C102.693 40.6585 102.626 40.7272 102.558 40.8112C102.257 41.3759 102.122 42.0245 102.159 42.6655Z" fill="#231F20"/>
<path d="M114.055 38.3616C114.311 38.3616 114.559 38.3769 114.807 38.4226L114.634 40.5594C114.424 40.5059 114.198 40.4754 113.98 40.483C113.378 40.4449 112.777 40.6433 112.318 41.0401C111.905 41.4522 111.687 42.0169 111.724 42.6045V46.8474H109.468V38.5142H111.153L111.483 39.9183H111.589C111.837 39.4452 112.198 39.0408 112.649 38.7584C113.07 38.4837 113.559 38.3463 114.055 38.3616Z" fill="#231F20"/>
<path d="M119.83 46.9924C118.695 47.061 117.582 46.6642 116.747 45.8859C115.965 45.0388 115.567 43.9018 115.642 42.7418C115.574 41.5743 115.935 40.4296 116.664 39.5215C117.401 38.7431 118.439 38.3311 119.499 38.3845C120.499 38.3234 121.477 38.6897 122.199 39.3842C122.876 40.1473 123.221 41.1469 123.161 42.1695V43.2684H117.898C117.883 43.8331 118.086 44.3825 118.462 44.7946C118.86 45.1838 119.409 45.3898 119.965 45.344C120.432 45.344 120.898 45.2906 121.357 45.1838C121.83 45.0693 122.297 44.9014 122.733 44.6878V46.3895C122.334 46.5956 121.921 46.7405 121.484 46.8321C120.943 46.9466 120.387 47 119.83 46.9924ZM119.514 39.9717C119.093 39.9489 118.687 40.1244 118.409 40.4372C118.116 40.8035 117.95 41.2614 117.95 41.7345H121.071C121.093 41.2614 120.943 40.7959 120.642 40.4372C120.349 40.1244 119.935 39.9565 119.514 39.9717Z" fill="#231F20"/>
<path d="M130.666 44.3749C130.711 45.1304 130.387 45.863 129.793 46.3285C129.019 46.8245 128.102 47.0611 127.184 46.9924C126.68 46.9924 126.177 46.9619 125.68 46.8703C125.274 46.8016 124.883 46.6795 124.507 46.5116V44.6344C124.951 44.848 125.417 45.0083 125.898 45.1304C126.35 45.2601 126.808 45.3288 127.274 45.3364C128.079 45.3364 128.485 45.0922 128.485 44.6191C128.493 44.4589 128.432 44.2986 128.32 44.1841C128.154 44.0315 127.974 43.9018 127.771 43.8026C127.508 43.6576 127.154 43.4973 126.718 43.3066C126.229 43.1081 125.763 42.8563 125.334 42.5434C125.064 42.345 124.838 42.0856 124.688 41.7803C124.545 41.4369 124.485 41.063 124.492 40.6891C124.462 40.0099 124.778 39.3613 125.334 38.9721C126.049 38.5295 126.883 38.3158 127.726 38.3692C128.718 38.3692 129.696 38.5905 130.59 39.0255L129.921 40.6586C129.515 40.483 129.132 40.3381 128.778 40.2236C128.425 40.1091 128.056 40.0481 127.688 40.0481C127.034 40.0481 126.703 40.2312 126.703 40.5975C126.71 40.8188 126.831 41.0172 127.019 41.1241C127.462 41.3835 127.929 41.6048 128.41 41.788C128.906 41.9864 129.372 42.2382 129.808 42.5511C130.087 42.7495 130.312 43.0089 130.47 43.3142C130.613 43.65 130.681 44.0086 130.666 44.3749Z" fill="#231F20"/>
<path d="M135.839 45.1838C136.32 45.1685 136.794 45.0846 137.245 44.9243V46.6184C136.598 46.8855 135.899 47.0152 135.2 46.9924C134.485 47.061 133.771 46.8092 133.252 46.3056C132.809 45.718 132.591 44.9777 132.643 44.2375V40.2236H131.575V39.262L132.801 38.4989L133.448 36.7438H134.869V38.5142H137.125V40.2236H134.869V44.2375C134.846 44.5046 134.944 44.7717 135.14 44.9548C135.335 45.1151 135.583 45.199 135.839 45.1838Z" fill="#231F20"/>
<path d="M138.802 36.3622C138.802 35.5991 139.2 35.2481 140.012 35.2481C140.824 35.2481 141.223 35.622 141.223 36.3622C141.238 36.6675 141.133 36.9651 140.922 37.1864C140.667 37.3924 140.343 37.4993 140.012 37.4764C139.2 37.4764 138.802 37.1101 138.802 36.3622ZM141.118 46.8474H138.862V38.5142H141.118V46.8474Z" fill="#231F20"/>
<path d="M147.148 46.9924C146.02 47.061 144.908 46.6642 144.073 45.8859C143.291 45.0388 142.885 43.9018 142.96 42.7418C142.892 41.5743 143.253 40.4296 143.983 39.5215C144.72 38.7431 145.757 38.3234 146.825 38.3845C147.818 38.3234 148.795 38.6897 149.517 39.3842C150.194 40.1473 150.54 41.1469 150.479 42.1695V43.2684H145.216C145.201 43.8331 145.404 44.3825 145.78 44.7946C146.178 45.1838 146.727 45.3898 147.284 45.344C147.75 45.344 148.216 45.2906 148.675 45.1838C149.149 45.0693 149.615 44.9014 150.051 44.6878V46.3895C149.652 46.5956 149.239 46.7405 148.803 46.8321C148.261 46.9466 147.705 47 147.148 46.9924ZM146.84 39.9717C146.419 39.9489 146.013 40.1244 145.727 40.4372C145.434 40.8035 145.269 41.2614 145.269 41.7345H148.389C148.412 41.2614 148.261 40.7959 147.96 40.4372C147.675 40.1244 147.261 39.9565 146.84 39.9717Z" fill="#231F20"/>
<path d="M156.848 38.3616C157.104 38.3616 157.352 38.3769 157.6 38.4226L157.427 40.5594C157.217 40.5059 156.991 40.4754 156.773 40.483C156.172 40.4449 155.57 40.6433 155.111 41.0401C154.698 41.4522 154.48 42.0169 154.517 42.6045V46.8474H152.261V38.5142H153.946L154.277 39.9183H154.382C154.63 39.4452 154.991 39.0408 155.442 38.7584C155.863 38.4837 156.352 38.3463 156.848 38.3616Z" fill="#231F20"/>
<path d="M165.586 46.9924C164.691 47.0229 163.842 46.5955 163.33 45.8553C162.24 43.8865 162.24 41.4903 163.33 39.5215C163.849 38.7813 164.691 38.3539 165.586 38.3616C166.526 38.3158 167.421 38.7813 167.932 39.5825H168.007C167.902 39.0331 167.849 38.476 167.842 37.919V35.2481H170.098V46.8474H168.391L167.955 45.7637H167.842C167.361 46.5574 166.503 47.0229 165.586 46.9924ZM166.338 45.1838C166.812 45.2219 167.27 45.0388 167.586 44.6801C167.902 44.1688 168.06 43.566 168.022 42.9555V42.7113C168.075 42.0474 167.932 41.3759 167.616 40.7883C167.3 40.3838 166.804 40.1625 166.3 40.2083C165.827 40.193 165.391 40.4372 165.142 40.8493C164.834 41.4216 164.691 42.0703 164.729 42.7266C164.684 43.3676 164.834 44.0162 165.15 44.5733C165.413 44.9777 165.864 45.2067 166.338 45.1838Z" fill="#231F20"/>
<path d="M178.061 46.8474L177.76 45.779H177.617C177.377 46.1759 177.023 46.4887 176.602 46.6795C176.128 46.9008 175.617 47.0076 175.098 46.9924C174.301 47.0611 173.519 46.7787 172.933 46.2293C172.391 45.5959 172.12 44.7717 172.181 43.9399V38.5142H174.436V43.3829C174.399 43.856 174.512 44.3291 174.752 44.7336C174.985 45.0464 175.369 45.2143 175.752 45.1838C176.279 45.2296 176.79 44.9854 177.098 44.5504C177.429 43.9018 177.572 43.1692 177.519 42.4366V38.5142H179.775V46.8474H178.061Z" fill="#231F20"/>
<path d="M190.694 37.7206C189.912 37.6748 189.167 38.0487 188.716 38.6974C188.205 39.5139 187.964 40.4678 188.017 41.4293C188.017 43.856 188.911 45.0693 190.694 45.0693C191.626 45.0312 192.543 44.8404 193.416 44.497V46.4353C192.483 46.8169 191.491 47.0076 190.483 46.9924C189.145 47.0763 187.836 46.5421 186.919 45.5501C186.024 44.3673 185.588 42.9021 185.686 41.414C185.663 40.3915 185.874 39.3689 186.295 38.4379C186.663 37.6214 187.272 36.9346 188.032 36.4691C188.844 36.0036 189.761 35.767 190.694 35.7899C191.776 35.7975 192.852 36.0646 193.822 36.553L193.07 38.4303C192.671 38.2395 192.265 38.0716 191.867 37.9266C191.491 37.7893 191.092 37.7206 190.694 37.7206Z" fill="#231F20"/>
<path d="M200.552 46.8474L200.115 45.7103H200.063C199.755 46.1301 199.364 46.4735 198.905 46.7176C198.409 46.9161 197.882 47.0153 197.348 46.9924C196.664 47.0305 196.002 46.7863 195.499 46.3132C195.017 45.779 194.777 45.077 194.822 44.3596C194.769 43.5889 195.115 42.8487 195.732 42.3984C196.566 41.9177 197.514 41.6735 198.476 41.704L199.89 41.6582V41.2919C199.973 40.6738 199.544 40.1015 198.935 40.0252C198.83 40.0099 198.724 40.0099 198.619 40.0252C197.822 40.0633 197.04 40.2694 196.318 40.628L195.566 39.1018C196.529 38.5905 197.604 38.3311 198.694 38.3387C199.597 38.2929 200.484 38.56 201.213 39.1018C201.83 39.6665 202.153 40.483 202.086 41.3225V46.8779L200.552 46.8474ZM199.89 42.986H199.033C198.529 42.9708 198.025 43.0929 197.581 43.3447C197.258 43.5736 197.078 43.9476 197.108 44.3444C197.108 44.9854 197.469 45.3059 198.19 45.3059C198.642 45.3288 199.085 45.1685 199.424 44.8633C199.739 44.5428 199.905 44.1078 199.882 43.6576V42.986H199.89Z" fill="#231F20"/>
<path d="M211.748 46.8474H209.492V41.9787C209.53 41.5056 209.417 41.0325 209.176 40.628C208.943 40.3152 208.567 40.1473 208.176 40.1778C207.65 40.132 207.139 40.3762 206.83 40.8112C206.507 41.4675 206.357 42.1924 206.417 42.925V46.8474H204.161V38.5142H205.868L206.161 39.5826H206.289C206.53 39.1781 206.89 38.8652 207.312 38.6668C207.785 38.4532 208.297 38.3463 208.815 38.3616C209.605 38.2929 210.395 38.5753 210.974 39.1247C211.515 39.7581 211.786 40.5823 211.725 41.414L211.748 46.8474Z" fill="#231F20"/>
<path d="M219.049 46.8474L218.613 45.7103H218.561C218.252 46.1301 217.861 46.4735 217.403 46.7176C216.906 46.9161 216.38 47.0153 215.846 46.9924C215.162 47.0305 214.5 46.7863 213.996 46.3132C213.515 45.779 213.274 45.077 213.32 44.3596C213.267 43.5889 213.613 42.8487 214.229 42.3984C215.064 41.9177 216.012 41.6735 216.974 41.704L218.388 41.6582V41.2919C218.47 40.6738 218.042 40.1015 217.433 40.0252C217.327 40.0099 217.222 40.0099 217.117 40.0252C216.32 40.0633 215.538 40.2694 214.816 40.628L214.064 39.1018C215.026 38.5905 216.102 38.3311 217.192 38.3387C218.094 38.2929 218.982 38.56 219.711 39.1018C220.328 39.6665 220.651 40.483 220.583 41.3225V46.8779L219.049 46.8474ZM218.388 42.986H217.53C217.027 42.9708 216.523 43.0929 216.079 43.3447C215.756 43.5736 215.575 43.9476 215.605 44.3444C215.605 44.9854 215.966 45.3059 216.688 45.3059C217.147 45.3288 217.591 45.1609 217.929 44.848C218.245 44.5275 218.41 44.0925 218.388 43.6423V42.986Z" fill="#231F20"/>
<path d="M225.328 46.9924C224.433 47.0305 223.584 46.6032 223.072 45.8553C221.959 43.8865 221.959 41.4674 223.072 39.4986C223.606 38.7508 224.471 38.3234 225.373 38.3616C226.313 38.3158 227.208 38.7813 227.727 39.5825H227.794C227.689 39.0331 227.637 38.476 227.629 37.919V35.2481H229.885V46.8474H228.178L227.749 45.7637H227.652C227.163 46.5803 226.268 47.0534 225.328 46.9924ZM226.08 45.1838C226.554 45.2296 227.02 45.0388 227.336 44.6801C227.644 44.1612 227.794 43.5584 227.764 42.9555V42.7113C227.817 42.0474 227.674 41.3759 227.358 40.7883C227.042 40.3838 226.546 40.1625 226.042 40.2083C225.569 40.193 225.133 40.4372 224.884 40.8493C224.576 41.4216 224.433 42.0703 224.471 42.7266C224.426 43.3676 224.576 44.0162 224.892 44.5733C225.163 44.9854 225.629 45.2143 226.11 45.1838H226.08Z" fill="#231F20"/>
<path d="M237.239 46.8474L236.81 45.7103H236.75C236.449 46.1301 236.051 46.4811 235.592 46.7176C235.103 46.9161 234.569 47.0153 234.043 46.9924C233.359 47.0305 232.697 46.7863 232.193 46.3132C231.712 45.779 231.471 45.077 231.517 44.3596C231.464 43.5889 231.802 42.8487 232.426 42.3984C233.261 41.9177 234.209 41.6735 235.171 41.704L236.585 41.6582V41.2919C236.667 40.6738 236.239 40.1015 235.63 40.0252C235.524 40.0099 235.419 40.0099 235.314 40.0252C234.517 40.0633 233.735 40.2694 233.013 40.628L232.261 39.1018C233.224 38.5905 234.299 38.3311 235.389 38.3387C236.291 38.2929 237.179 38.56 237.908 39.1018C238.517 39.6665 238.841 40.483 238.78 41.3225V46.8779L237.239 46.8474ZM236.585 42.986H235.72C235.216 42.9708 234.712 43.0929 234.276 43.3447C233.953 43.5736 233.772 43.9476 233.802 44.3444C233.802 44.9854 234.163 45.3059 234.885 45.3059C235.344 45.3288 235.788 45.1609 236.119 44.848C236.434 44.5275 236.6 44.0925 236.585 43.6423V42.986Z" fill="#231F20"/>
</g>
<defs>
<clipPath id="clip0_319_19352">
<rect width="256" height="47" fill="white"/>
</clipPath>
</defs>
</svg>
